# xmcd CD database file
#
# Track frame offsets:
#	150
#	15038
#	33558
#	50380
#	65566
#	75150
#	89887
#	103874
#	122611
#	138485
#	154328
#	175396
#	193850
#	207672
#	231349
#	247944
#	261626
#	276831
#	286212
#
# Disc length: 4137 seconds
#
# Revision: 0
# Processed by: cddbd v1.5.2PL0 Copyright (c) Steve Scherf et al.
# Submitted via: CDex 1.70beta2
#
DISCID=1a102713
DTITLE=No Mercy Jugband - Live in Küsters Hof CD2
DYEAR=2001
DGENRE=Jazz
TTITLE0=Take This Hammer
TTITLE1=My Gal
TTITLE2=Limehouse Blues
TTITLE3=Little Red Hen
TTITLE4=Midnight Special
TTITLE5=France Blues
TTITLE6=Honey
TTITLE7=Buddy Bolden's Blues
TTITLE8=The Biggest Kick
TTITLE9=Troubles In Mind
TTITLE10=Tight Like That
TTITLE11=Mighty Man
TTITLE12=Fisherman's Blues
TTITLE13=Worried Man Blues
TTITLE14=Puttin' On The Style
TTITLE15=San Francisco Bay Blues
TTITLE16=Dead Or Alive
TTITLE17=John Henry
TTITLE18=Mama Don't Allow
EXTD=YEAR: 2001
EXTT0=
EXTT1=
EXTT2=
EXTT3=
EXTT4=
EXTT5=
EXTT6=
EXTT7=
EXTT8=
EXTT9=
EXTT10=
EXTT11=
EXTT12=
EXTT13=
EXTT14=
EXTT15=
EXTT16=
EXTT17=
EXTT18=
PLAYORDER=
